<?xml version="1.0" encoding="UTF-8"?>
<svg width="71px" height="176px" viewBox="0 0 71 176" version="1.1" xmlns="http://www.w3.org/2000/svg" xmlns:xlink="http://www.w3.org/1999/xlink">
    <!-- Generator: Sketch 48.2 (47327) - http://www.bohemiancoding.com/sketch -->
    <title>Oval - Striped</title>
    <desc>Created with Sketch.</desc>
    <defs></defs>
    <g id="Page-1" stroke="none" stroke-width="1" fill="none" fill-rule="evenodd">
        <g id="Oval---Striped" transform="translate(35.500000, 88.000000) rotate(90.000000) translate(-35.500000, -88.000000) translate(-52.000000, 53.000000)" fill="#4A4A4A" fill-rule="nonzero">
            <path d="M35,4 C17.8791728,4 4,17.8791728 4,35 C4,52.1208272 17.8791728,66 35,66 L140,66 C157.120827,66 171,52.1208272 171,35 C171,17.8791728 157.120827,4 140,4 L35,4 Z M35,0 L140,0 C159.329966,-3.55085719e-15 175,15.6700338 175,35 C175,54.3299662 159.329966,70 140,70 L35,70 C15.6700338,70 2.36723813e-15,54.3299662 0,35 C-2.36723813e-15,15.6700338 15.6700338,3.55085719e-15 35,0 Z" id="Rectangle-path"></path>
            <path d="M7.15318853,13.7942212 L13.8002422,7.16008795 C11.2947144,9.05951611 9.05951611,11.2947144 7.15318853,13.7942212 Z M13.8483161,7.11201401 L7.11201401,13.8483161 C9.04101231,11.3089114 11.3089114,9.04101231 13.8483161,7.11201401 Z M27.3703937,1.85917102 L27.8540486,1.59156292 L27.6490924,1.79651906 L28.9192656,0.526345868 C29.3583271,0.449433003 29.800205,0.380703126 30.2447358,0.32031937 L30.3416248,0.518200267 L29.4011994,1.45862562 C28.8134592,1.55598154 28.2292762,1.66866736 27.6490924,1.79651906 L1.79652114,27.6490832 L27.6490926,1.79651889 C27.5560894,1.8170136 27.4631892,1.8378978 27.3703937,1.85917102 Z M1.45862566,29.4011994 L0.518200267,30.3416248 L0.320319371,30.2447358 C0.38070309,29.8002053 0.449432948,29.3583276 0.526345932,28.9192656 L1.79651915,27.6490922 C1.66866717,28.2292777 1.55598143,28.8134603 1.45862566,29.4011994 Z M1.85917315,27.3703843 L1.59156484,27.8540394 L1.79652114,27.6490832 C1.81701566,27.5560802 1.83789989,27.46318 1.85917315,27.3703843 Z M30.5838887,0.275936378 L0.275936378,30.5838887 C0.422537701,29.419458 0.626346185,28.2728381 0.884458162,27.1469325 L27.1469419,0.884456042 C28.2728381,0.626346185 29.419458,0.422537701 30.5838887,0.275936378 Z M39.3451064,1.81945848e-14 L0.23838169,39.1067247 C0.287186891,39.5243075 0.343342702,39.9396447 0.406716281,40.3526037 L1.2908903,39.4684294 C1.21562847,38.8949594 1.15486203,38.3185442 1.10871811,37.7395668 L0.111879029,37.8190138 L0.81898581,38.5261206 L38.6379997,0.707106781 L37.9308929,1 L39.75932,1 L40.4664268,0.292893219 L40.3451064,1.0658141e-14 L39.3451064,1.81945848e-14 Z M40.75932,7.10542736e-15 L0.406716281,40.3526037 C0.278549469,39.5174349 0.1799041,38.6725386 0.111879029,37.8190138 L37.9308929,2.84217094e-14 L40.75932,7.10542736e-15 Z M49.2446014,1.56824369e-14 L50.2446014,1.0658141e-14 L50.3659217,0.292893219 L49.6588149,1 L47.8303878,1 L48.5374946,0.707106781 L2.48727546,46.7573259 L1.78016868,46.0502191 L2.72909577,45.7347237 C2.90955246,46.2774898 3.10367894,46.8152491 3.31125221,47.3475627 L2.54116345,48.1176515 C2.40465457,47.7801962 2.27325539,47.4401269 2.14706186,47.0975395 L49.2446014,1.56824369e-14 Z M50.6588149,7.10542736e-15 L2.54116345,48.1176515 C2.26656152,47.4388248 2.01263631,46.7494204 1.78016868,46.0502191 L47.8303878,2.13162821e-14 L50.6588149,7.10542736e-15 Z M59.1440963,7.10542736e-15 L60.1440963,7.10542736e-15 L60.2654167,0.292893219 L59.5583099,1 L57.7298827,1 L58.4369895,0.707106781 L5.59180589,53.5522904 L4.88469911,52.8451836 L5.74451979,52.3345875 C6.05052304,52.8498831 6.37010796,53.356999 6.70289938,53.8554105 L5.98230019,54.5760097 C5.79171691,54.2940594 5.60513478,54.0091827 5.42263529,53.721461 L59.1440963,7.10542736e-15 Z M60.5583099,7.10542736e-15 L5.98230019,54.5760097 C5.60012469,54.0106166 5.23403864,53.4334555 4.88469911,52.8451836 L57.7298827,7.10542736e-15 L60.5583099,7.10542736e-15 Z M69.0435912,1.56824369e-14 L9.77764992,59.2659413 C9.85914931,59.3506325 9.94107121,59.4349142 10.0234122,59.518783 L10.481217,59.9765878 L11.1817947,59.2630116 C10.7194097,58.8090494 10.2699931,58.3420263 9.83413938,57.8625541 L9.09417621,58.5352015 L9.80128299,59.2423083 L68.3364845,0.707106781 L67.6293777,1 L69.4578048,1 L70.1649116,0.292893219 L70.0435912,1.0658141e-14 L69.0435912,1.56824369e-14 Z M70.4578048,7.10542736e-15 L10.481217,59.9765878 C10.0053723,59.509411 9.54281886,59.0287424 9.09417621,58.5352015 L67.6293777,2.13162821e-14 L70.4578048,7.10542736e-15 Z M15.2676903,63.6753959 L15.9747971,64.3825027 L16.5190964,63.5436116 C16.0094954,63.2129661 15.5088091,62.8687221 15.0175805,62.5112921 L14.3019928,63.2268798 C14.5742904,63.4268854 14.8495881,63.6230456 15.1278058,63.8152804 L46.7518349,32.1912513 L15.2676903,63.6753959 Z M78.2359794,0.707106781 L77.5288726,1 L79.3572997,1 L80.0644065,0.292893219 L79.9430862,3.55271368e-15 L78.9430862,8.57700955e-15 L46.7518349,32.1912513 L78.2359794,0.707106781 Z M80.3572997,0 L15.9747971,64.3825027 C15.4055734,64.0131721 14.8477572,63.6277497 14.3019928,63.2268798 L77.5288726,1.42108547e-14 L80.3572997,0 Z M21.832653,67.0099282 L22.5397597,67.7170349 L22.8958491,66.782583 C22.3584472,66.5777966 21.8265948,66.3593937 21.3007457,66.1276219 L20.5438729,66.8844947 C20.8695999,67.0324114 21.1979936,67.1754834 21.5289622,67.3136189 L54.9840637,33.8585175 L21.832653,67.0099282 Z M88.1354743,0.707106781 L87.4283676,1 L89.2567947,1 L89.9639015,0.292893219 L89.8425811,7.10542736e-15 L88.8425811,7.10542736e-15 L54.9840637,33.8585175 L88.1354743,0.707106781 Z M90.2567947,7.10542736e-15 L22.5397597,67.7170349 C21.8641863,67.4595958 21.1986416,67.1818333 20.5438729,66.8844947 L87.4283676,7.10542736e-15 L90.2567947,7.10542736e-15 Z M29.7423132,68.9997629 L30.44942,69.7068696 L30.5781732,68.715193 C30.0081412,68.6411835 29.4411096,68.55287 28.8774682,68.4503943 L28.0232733,69.3045892 C28.4189722,69.3846308 28.8170917,69.4579976 29.2175091,69.5245669 L63.8886412,34.8534348 L29.7423132,68.9997629 Z M98.0349693,0.707106781 L97.3278625,1 L99.1562896,1 L99.8633964,0.292893219 L99.7420761,7.10542736e-15 L98.7420761,7.10542736e-15 L63.8886412,34.8534348 L98.0349693,0.707106781 Z M100.15629,7.10542736e-15 L30.44942,69.7068696 C29.6315041,69.6006765 28.8224519,69.4662464 28.0232733,69.3045892 L97.3278625,7.10542736e-15 L100.15629,7.10542736e-15 Z M39.3486778,69.2928932 L40.0557846,69 L38.2273574,69 L37.5202507,69.7071068 L37.641571,70 L38.641571,70 L73.641571,35 L39.3486778,69.2928932 Z M107.934464,0.707106781 L107.227357,1 L109.055785,1 L109.762891,0.292893219 L109.641571,1.0658141e-14 L108.641571,2.07067328e-14 L73.641571,35 L107.934464,0.707106781 Z M110.055785,7.10542736e-15 L40.0557846,70 L37.2273574,70 L107.227357,3.55271368e-14 L110.055785,7.10542736e-15 Z M49.2481727,69.2928932 L49.9552795,69 L48.1268524,69 L47.4197456,69.7071068 L47.5410659,70 L48.5410659,70 L83.5410659,35 L49.2481727,69.2928932 Z M117.833959,0.707106781 L117.126852,1 L118.955279,1 L119.662386,0.292893219 L119.541066,7.10542736e-15 L118.541066,7.10542736e-15 L83.5410659,35 L117.833959,0.707106781 Z M119.955279,7.10542736e-15 L49.9552795,70 L47.1268524,70 L117.126852,7.10542736e-15 L119.955279,7.10542736e-15 Z M59.1476676,69.2928932 L59.8547744,69 L58.0263473,69 L57.3192405,69.7071068 L57.4405609,70 L58.4405609,70 L93.4405609,35 L59.1476676,69.2928932 Z M127.733454,0.707106781 L127.026347,1 L128.854774,1 L129.561881,0.292893219 L129.440561,1.0658141e-14 L128.440561,1.56824369e-14 L93.4405609,35 L127.733454,0.707106781 Z M129.854774,7.10542736e-15 L59.8547744,70 L57.0263473,70 L127.026347,2.13162821e-14 L129.854774,7.10542736e-15 Z M69.0471626,69.2928932 L69.7542694,69 L67.9258422,69 L67.2187355,69.7071068 L67.3400558,70 L68.3400558,70 L103.340056,35 L69.0471626,69.2928932 Z M137.632949,0.707106781 L136.925842,1 L138.754269,1 L139.461376,0.292893219 L139.340056,1.0658141e-14 L138.340056,2.07067328e-14 L103.340056,35 L137.632949,0.707106781 Z M139.754269,7.10542736e-15 L69.7542694,70 L66.9258422,70 L136.925842,3.55271368e-14 L139.754269,7.10542736e-15 Z M112.959891,35.2796594 L78.9466575,69.2928932 L79.6537643,69 L77.8253372,69 L77.1182304,69.7071068 L77.2395507,70 L78.2395507,70 L112.959891,35.2796594 Z M112.959891,35.2796594 L146.973125,1.26642556 L146.266018,0.559318776 L146.088156,1.54337416 C146.650234,1.64496653 147.208845,1.76061943 147.76359,1.89017388 L148.591507,1.06225726 C148.212057,0.966495825 147.830141,0.876931066 147.445874,0.793676914 L112.959891,35.2796594 Z M79.6537643,70 L76.8253372,70 L146.266018,0.559318776 C147.05059,0.701125598 147.826065,0.869083497 148.591507,1.06225726 L79.6537643,70 Z M88.8461525,69.2928932 L89.5532592,69 L87.7248321,69 L87.0177253,69.7071068 L87.1390457,70 L88.1390457,70 L121.711284,36.4277615 L88.8461525,69.2928932 Z M154.844357,3.29468861 C155.1639,3.44455662 155.480807,3.59911315 155.79499,3.75826963 L155.049742,4.50351684 C154.530517,4.24677945 154.004677,4.00335132 153.472694,3.77350772 L153.869309,2.85552294 L154.576416,3.56262972 L121.711284,36.4277615 L154.844357,3.29468861 Z M89.5532592,70 L86.7248321,70 L153.869309,2.85552294 C154.52172,3.13739724 155.163853,3.43855219 155.79499,3.75826963 L89.5532592,70 Z M98.7456474,69.2928932 L99.4527542,69 L97.6243271,69 L96.9172203,69.7071068 L97.0385406,70 L98.0385406,70 L129.829403,38.2091373 L98.7456474,69.2928932 Z M160.913159,7.12538136 L160.206052,6.41827458 L159.628083,7.2343332 C160.131461,7.59084765 160.625111,7.96098249 161.108471,8.34428343 L161.82014,7.63261441 C161.557637,7.42304427 161.292052,7.21717203 161.023464,7.01507656 L129.829403,38.2091373 L160.913159,7.12538136 Z M161.82014,7.63261441 L99.4527542,70 L96.6243271,70 L160.206052,6.41827458 C160.756027,6.80779127 161.294268,7.21278264 161.82014,7.63261441 Z M166.122483,11.8155529 L166.829589,12.5226597 L166.063382,13.1652531 C165.652922,12.6758336 165.228792,12.1979752 164.791543,11.7322791 L165.498991,11.0248314 C165.727584,11.2678611 165.952742,11.514159 166.174388,11.7636477 L137.383812,40.5542231 L166.122483,11.8155529 Z M108.645142,69.2928932 L109.352249,69 L107.523822,69 L106.816715,69.7071068 L106.938036,70 L107.938036,70 L137.383812,40.5542231 L108.645142,69.2928932 Z M166.829589,12.5226597 L109.352249,70 L106.523822,70 L165.498991,11.0248314 C165.956491,11.5112237 166.400231,12.010707 166.829589,12.5226597 Z M170.124453,17.7130774 L170.83156,18.4201841 L169.951245,18.8945736 C169.670514,18.3736278 169.376213,17.8601468 169.06868,17.3546372 L169.795832,16.6274845 C169.9764,16.9197002 170.152789,17.2147711 170.324916,17.512614 L144.334545,43.5029853 L170.124453,17.7130774 Z M118.544637,69.2928932 L119.251744,69 L117.423317,69 L116.71621,69.7071068 L116.83753,70 L117.83753,70 L144.334545,43.5029853 L118.544637,69.2928932 Z M119.251744,70 L116.423317,70 L169.795832,16.6274845 C170.158121,17.2137812 170.503588,17.8115722 170.83156,18.4201841 L119.251744,70 Z M172.978537,24.7584884 L173.685644,25.4655952 L172.723302,25.7374368 C172.568334,25.1888361 172.39961,24.644709 172.217332,24.1054799 L173.003481,23.319331 C173.127475,23.6696662 173.246049,24.0225638 173.359102,24.377923 L150.711335,47.0256908 L172.978537,24.7584884 Z M128.444132,69.2928932 L129.151239,69 L127.322812,69 L126.615705,69.7071068 L126.737025,70 L127.737025,70 L150.711335,47.0256908 L128.444132,69.2928932 Z M129.151239,70 L126.322812,70 L173.003481,23.319331 C173.253112,24.0246408 173.480773,24.7403364 173.685644,25.4655952 L129.151239,70 Z M174.926296,32.7102244 C174.898049,32.2728164 174.861766,31.8375969 174.817595,31.4047121 L173.896434,32.3258725 C173.941964,32.9113163 173.97254,33.4992532 173.988047,34.0893041 L174.987702,34.0630324 L174.280595,33.3559256 L156.312111,51.3244094 L174.926296,32.7102244 Z M138.343627,69.2928932 L139.050734,69 L137.222307,69 L136.5152,69.7071068 L136.63652,70 L137.63652,70 L156.312111,51.3244094 L138.343627,69.2928932 Z M139.050734,70 L136.222307,70 L174.817595,31.4047121 C174.907076,32.2816429 174.964183,33.1681545 174.987702,34.0630324 L139.050734,70 Z M148.089891,68.0319112 C148.825673,67.8523494 149.554322,67.6482894 150.274876,67.4201405 L149.869629,67.6663861 L172.666386,44.8696292 L172.420141,45.2748764 C172.648289,44.554322 172.852349,43.8256729 173.031911,43.0898905 L174.128778,41.9930236 L174.284372,42.0759307 C174.179176,42.588313 174.062782,43.0966111 173.935457,43.600558 L148.600558,68.9354573 C148.096611,69.0627818 147.588313,69.1791757 147.075931,69.284372 L146.993024,69.1287781 L148.089891,68.0319112 Z M150.576736,68.3734929 C149.338704,68.7654906 148.070881,69.0905043 146.777522,69.3442796 L174.34428,41.7775221 C174.090504,43.0708808 173.765491,44.3387035 173.373493,45.5767359 L150.576736,68.3734929 Z" id="Combined-Shape"></path>
        </g>
    </g>
</svg>