<?xml version="1.0" encoding="UTF-8"?>
<svg width="67px" height="176px" viewBox="0 0 67 176" version="1.1" xmlns="http://www.w3.org/2000/svg" xmlns:xlink="http://www.w3.org/1999/xlink">
    <!-- Generator: Sketch 48.2 (47327) - http://www.bohemiancoding.com/sketch -->
    <title>Squiggle - Solid</title>
    <desc>Created with Sketch.</desc>
    <defs></defs>
    <g id="Page-1" stroke="none" stroke-width="1" fill="none" fill-rule="evenodd">
        <path d="M-41.4460351,70.9751127 C-37.2335259,65.8059457 -32.0659591,62.3127334 -25.1156706,59.9935271 C-12.1222858,55.657831 -0.381872305,57.1616543 32.7403955,66.9860671 C46.9969122,71.3296358 58.3511711,70.984994 70.0248323,66.3778832 C70.9583113,66.0094777 71.879422,65.6231385 73.0549589,65.108407 C73.317416,64.9934851 75.0639569,64.2201229 75.6946892,63.9378714 C86.6338369,57.6920022 95.2681302,55.0018973 105.527246,55.0018973 C117.530515,55.0018973 124.057369,74.807144 117.526283,87.8800468 C111.516052,101.112969 102.047497,111.527637 91.5654072,115.899781 C80.9008313,120.348041 64.1272667,118.225322 32.7300779,108.912636 C17.1822378,104.334915 5.26123136,105.243835 -9.18534782,111.918294 C-10.7394232,112.609507 -10.8493193,112.661748 -15.1757609,114.76588 C-25.918159,119.990363 -31.5673426,121.503962 -39.1621089,120.891154 C-51.9856734,120.813151 -58.0607794,103.001974 -51.0430338,87.942826 C-46.8447599,78.8372099 -44.6291566,74.8811187 -41.4460351,70.9751127 Z" id="Squiggle---Solid" fill="#4A4A4A" fill-rule="nonzero" transform="translate(33.054995, 88.010555) rotate(90.000000) translate(-33.054995, -88.010555) "></path>
    </g>
</svg>